<?xml version="1.0" encoding="UTF-8" standalone="no"?>
<!-- Created with Inkscape (http://www.inkscape.org/) -->
<svg
   xmlns:dc="http://purl.org/dc/elements/1.1/"
   xmlns:cc="http://creativecommons.org/ns#"
   xmlns:rdf="http://www.w3.org/1999/02/22-rdf-syntax-ns#"
   xmlns:svg="http://www.w3.org/2000/svg"
   xmlns="http://www.w3.org/2000/svg"
   xmlns:sodipodi="http://sodipodi.sourceforge.net/DTD/sodipodi-0.dtd"
   xmlns:inkscape="http://www.inkscape.org/namespaces/inkscape"
   id="svg2"
   sodipodi:version="0.32"
   inkscape:version="0.46"
   width="600"
   height="640.18695"
   version="1.0"
   sodipodi:docname="Cannabis leaf.svg"
   inkscape:output_extension="org.inkscape.output.svg.inkscape">
  <metadata
     id="metadata7">
    <rdf:RDF>
      <cc:Work
         rdf:about="">
        <dc:format>image/svg+xml</dc:format>
        <dc:type
           rdf:resource="http://purl.org/dc/dcmitype/StillImage" />
      </cc:Work>
    </rdf:RDF>
  </metadata>
  <defs
     id="defs5">
    <inkscape:perspective
       sodipodi:type="inkscape:persp3d"
       inkscape:vp_x="0 : 526.18109 : 1"
       inkscape:vp_y="0 : 1000 : 0"
       inkscape:vp_z="744.09448 : 526.18109 : 1"
       inkscape:persp3d-origin="372.04724 : 350.78739 : 1"
       id="perspective9" />
  </defs>
  <sodipodi:namedview
     inkscape:window-height="719"
     inkscape:window-width="1024"
     inkscape:pageshadow="2"
     inkscape:pageopacity="0.0"
     guidetolerance="10.0"
     gridtolerance="10.0"
     objecttolerance="10.0"
     borderopacity="1.0"
     bordercolor="#666666"
     pagecolor="#ffffff"
     id="base"
     showgrid="false"
     inkscape:zoom="0.79039412"
     inkscape:cx="300"
     inkscape:cy="320.09348"
     inkscape:window-x="-4"
     inkscape:window-y="-4"
     inkscape:current-layer="svg2" />
  <g
     id="g5801"
     style="fill:#008000;fill-opacity:1"
     transform="translate(1.2651916,17.712682)">
    <path
       style="fill:#008000;fill-opacity:1"
       d="M 298.91414,568.28848 C 304.36308,535.55679 306.40378,490.84271 302.73524,490.84271 C 301.79143,490.84271 298.01015,492.76832 294.33238,495.12185 C 285.50503,500.7708 262.66103,512.86399 260.81757,512.86399 C 260.01858,512.86399 258.92049,512.06993 258.37735,511.0994 C 257.54377,509.60989 255.72272,510.17949 246.69468,514.7536 C 237.33203,519.49725 235.67247,519.99736 233.3746,518.76757 C 231.1094,517.55528 229.57007,517.92808 222.14184,521.48795 C 212.68778,526.01869 211.55467,526.24707 208.37664,524.26236 C 206.60888,523.15837 205.28817,523.449 201.14852,525.85293 C 192.92811,530.6266 191.07108,530.88315 190.1886,527.36705 C 189.77256,525.70942 189.10324,524.53291 188.70122,524.75257 C 181.81392,528.51583 175.31909,530.71449 170.58506,530.88536 C 163.99046,531.12339 157.15333,533.10936 140.08524,539.7446 C 133.50966,542.30087 127.89065,544.15336 127.59855,543.86125 C 126.22543,542.48813 129.33151,539.36892 140.92882,530.47458 C 147.83222,525.18015 154.46044,519.94633 155.65818,518.84388 C 156.85593,517.74144 159.12515,515.94518 160.70091,514.85218 C 162.28178,513.75563 163.58049,511.69587 163.59845,510.25667 C 163.62347,508.25006 165.18425,506.87208 170.36486,504.28278 C 174.61188,502.16008 176.58266,500.59815 175.70128,500.05344 C 173.06391,498.42345 175.64752,495.7026 182.13889,493.27387 C 185.71271,491.93673 189.66028,490.84271 190.91129,490.84271 C 193.50718,490.84271 193.64791,490.39469 192.01209,487.33812 C 190.98194,485.41327 191.44284,484.97383 195.77888,483.74661 C 198.49619,482.97754 203.69498,482.3037 207.33173,482.2492 C 213.47374,482.15715 213.90016,481.97491 213.32719,479.68686 C 212.75211,477.39037 213.28522,477.17203 221.20258,476.46139 C 225.9315,476.03694 231.41033,476.20711 233.56605,476.8454 C 236.66757,477.76374 237.31829,477.68152 236.83876,476.43187 C 235.88966,473.95855 241.96851,473.3443 260.39291,474.05182 L 277.21441,474.6978 L 265.62426,470.59266 C 254.6529,466.70671 229.75667,458.98904 218.93895,456.12052 C 216.21052,455.39703 214.17195,454.43825 214.40879,453.98991 C 215.26774,452.36392 211.0489,449.68961 207.09036,449.35079 C 204.86127,449.15998 198.52286,448.20208 193.00501,447.22212 C 184.57808,445.72549 182.84226,445.03909 182.15839,442.93296 C 181.7106,441.5539 181.40476,439.85598 181.47874,439.15979 C 181.55273,438.46362 177.09194,436.94518 171.56586,435.78551 C 160.86372,433.53959 156.63532,430.87961 157.8223,427.13974 C 158.3692,425.4166 157.74049,424.83001 154.69429,424.22132 C 144.06877,422.09817 138.90792,420.03472 137.02115,417.15514 C 135.16677,414.325 135.16915,414.02365 137.06233,411.93171 C 138.77524,410.03896 138.8096,409.71169 137.29543,409.71169 C 136.31865,409.71169 131.77517,408.86611 127.19883,407.83266 C 120.96385,406.42462 118.42583,405.26319 117.07343,403.19918 C 115.38094,400.61612 115.4391,400.30277 118.00804,398.1627 C 119.5147,396.90755 120.35626,395.79809 119.87816,395.69719 C 119.40007,395.5963 118.61774,395.44248 118.13964,395.35536 C 113.19016,394.4535 98.981994,388.07479 96.837156,385.7917 C 94.164862,382.94713 94.150131,382.82362 96.296267,381.25432 C 98.465166,379.66836 98.465166,379.62811 96.296267,378.87346 C 90.437483,376.83492 83.536362,373.50611 81.673025,371.81981 C 79.456676,369.81404 78.842352,365.66913 80.761414,365.66913 C 83.855485,365.66913 81.227419,363.65008 74.980283,361.2277 C 71.163196,359.74759 66.94786,357.14799 65.612849,355.4508 L 63.185547,352.36499 L 65.612686,350.75344 C 67.932744,349.21297 67.694787,348.94026 60.218609,344.57143 C 51.729039,339.61041 50.380595,338.23732 51.249648,335.43862 C 51.61833,334.25132 50.714994,333.10079 48.689512,332.17791 C 43.772125,329.93741 36.638622,323.86493 36.984553,322.21392 C 37.443384,320.02405 24.033398,309.67249 10.151416,301.50066 C 1.0698755,296.15467 -1.2966819,294.29692 0.61660799,294.01581 C 2.0163384,293.81016 5.8875518,294.52555 9.219325,295.60557 C 16.320445,297.90744 39.882785,307.22366 42.757872,308.86623 C 43.848215,309.48916 45.488927,309.71157 46.403888,309.36047 C 47.318849,309.00936 51.381532,310.44836 55.432068,312.55823 C 59.482611,314.6681 63.187854,316.57196 63.665947,316.78902 C 64.144041,317.00608 64.535208,316.35789 64.535208,315.34857 C 64.535208,314.33926 64.821891,313.51347 65.172272,313.51347 C 66.613356,313.51347 73.515892,317.53454 77.642911,320.77823 C 81.956822,324.16882 82.072816,324.19175 82.703899,321.77845 C 83.059149,320.42 83.762717,319.30854 84.267387,319.30854 C 85.658216,319.30854 97.86176,329.48819 98.484545,331.16784 C 98.795404,332.00626 99.586791,331.23502 100.32755,329.37173 L 101.62575,326.10627 L 105.39152,328.76594 C 107.46268,330.22876 111.61042,333.86575 114.60871,336.84815 L 120.06015,342.27068 L 121.36293,338.32321 C 122.07946,336.15209 122.94331,334.37573 123.28258,334.37573 C 124.43752,334.37573 136.96012,346.19176 140.62224,350.73703 L 144.27087,355.26552 L 145.48776,351.77472 C 146.15707,349.85477 147.19356,348.28391 147.79109,348.28391 C 149.36657,348.28391 163.05683,363.17551 164.16537,366.09507 C 165.07481,368.49024 165.14952,368.46811 166.58172,365.37937 C 167.39456,363.62636 168.69841,362.19208 169.47919,362.19208 C 171.23976,362.19208 185.05541,376.81903 185.11915,378.75045 C 185.14467,379.52394 185.94366,378.72253 186.89468,376.96952 C 187.84571,375.21651 189.0127,373.78223 189.48798,373.78223 C 190.70603,373.78223 201.78674,386.53065 204.62429,391.19662 L 206.98585,395.0799 L 208.17027,391.96466 C 208.82169,390.25128 209.83124,388.84942 210.4137,388.84942 C 211.74153,388.84942 225.6235,407.12878 225.67933,408.95071 C 225.70191,409.68797 226.35385,409.15197 227.1281,407.7596 C 227.90233,406.36723 228.87944,405.06334 229.29945,404.86207 C 230.21829,404.42176 243.68015,421.63444 246.17217,426.43597 C 247.9249,429.81305 247.94192,429.81774 249.29144,427.29612 C 250.63309,424.78923 250.69498,424.80973 254.7876,429.11608 C 257.06418,431.51156 261.03211,436.18868 263.60521,439.5097 C 268.59579,445.95089 282.69152,459.45217 289.3684,464.18641 L 293.4093,467.0516 L 290.81717,463.41129 C 289.3915,461.40913 288.22505,459.43171 288.22505,459.01705 C 288.22505,458.60239 286.17865,455.24964 283.67748,451.56651 C 278.96855,444.63232 270.3926,435.65468 256.26907,422.8743 C 251.76117,418.79512 247.40322,413.7736 246.58472,411.71538 C 245.22586,408.29835 243.15917,406.35434 230.59997,396.67949 C 227.19665,394.05779 223.32023,388.89202 223.32023,386.97841 C 223.32023,386.73255 224.23295,386.50404 225.3485,386.4706 C 226.97514,386.42184 226.80965,386.02021 224.51279,384.44233 C 214.71196,377.70939 205.4351,369.98358 204.1295,367.46704 C 202.81443,364.93223 202.87121,364.39404 204.55301,363.45285 C 205.62121,362.85505 206.23877,362.15278 205.92535,361.89226 C 205.61193,361.63173 201.7046,358.89406 197.24239,355.80854 C 186.92758,348.67606 182.51865,343.64785 186.57946,343.64785 C 187.40816,343.64785 188.68043,343.0536 189.40674,342.32729 C 190.39481,341.33922 189.06705,339.9318 184.13322,336.73741 C 177.83403,332.65901 170.00555,324.97525 170.00555,322.8709 C 170.00555,322.32472 171.30944,321.55061 172.90309,321.15063 C 174.49673,320.75064 175.80062,320.00218 175.80062,319.48736 C 175.80062,318.97255 172.61795,316.24566 168.728,313.42759 C 164.83806,310.60953 160.93359,306.90808 160.05142,305.20215 C 158.50572,302.2131 158.57317,302.07284 161.90849,301.34029 C 166.33166,300.3688 166.26887,299.4624 161.60269,296.92542 C 156.58877,294.19937 145.6352,284.32508 145.65251,282.54684 C 145.66006,281.77037 147.00935,280.43136 148.65094,279.57125 L 151.63563,278.00741 L 146.85685,274.84496 C 141.02467,270.9854 132.91708,263.76378 132.91708,262.42848 C 132.91708,261.89079 134.89962,260.85687 137.32274,260.13088 L 141.7284,258.81092 L 131.52766,248.75474 C 125.91726,243.22384 121.32693,237.85703 121.32693,236.8285 C 121.32693,235.6094 122.73709,234.6939 125.37799,234.19846 L 129.42904,233.43847 L 122.09501,226.24613 C 112.95969,217.28728 112.01493,215.17904 116.71433,214.23916 C 118.61381,213.85927 120.16792,213.3555 120.16792,213.11966 C 120.16792,212.88382 117.60982,209.5163 114.48326,205.63628 C 108.63735,198.38157 106.61353,194.14849 108.97603,194.11721 C 109.71317,194.10745 111.0819,193.61525 112.01763,193.02345 C 113.46263,192.10955 113.36633,191.63198 111.37853,189.8539 C 107.56656,186.44412 102.78269,179.57409 102.78269,177.50959 C 102.78269,176.21789 103.76343,175.59071 105.78325,175.59071 L 108.78383,175.59071 L 105.72787,171.95891 C 102.11247,167.66227 98.146634,160.18867 98.146634,157.67216 C 98.146634,156.6794 99.14297,155.88746 100.39197,155.88746 C 102.49381,155.88746 102.41974,155.4076 99.232956,148.37932 C 95.744715,140.68616 94.771931,135.39435 97.111785,136.84046 C 97.966697,137.36882 98.145267,136.84674 97.646798,135.27622 C 97.235301,133.97971 95.909214,129.35077 94.699933,124.9897 C 93.490652,120.62863 89.338227,110.17622 85.47231,101.76214 C 81.606405,93.348037 78.443385,86.095801 78.443385,85.646049 C 78.443385,83.337835 84.274248,90.800082 94.316566,105.9603 C 100.47195,115.25269 106.6722,123.95948 108.0949,125.30875 C 109.5176,126.65801 112.07428,130.70577 113.77641,134.30378 C 115.47855,137.90179 117.37503,140.53424 117.99082,140.15367 C 118.60662,139.77308 119.91062,140.12578 120.8886,140.93745 C 123.06506,142.74374 127.64857,151.74442 128.78239,156.43852 L 129.61537,159.88712 L 131.67455,157.15721 L 133.73372,154.4273 L 135.54326,157.01077 C 136.5385,158.43169 138.31059,162.66743 139.48124,166.42356 C 141.60046,173.22325 142.87874,174.43756 145.33345,171.98285 C 146.04285,171.27345 147.12687,171.00425 147.74235,171.38465 C 149.42162,172.42249 152.95607,180.28624 153.70197,184.64411 L 154.35885,188.48196 L 157.1102,185.91399 C 159.78083,183.42135 159.89895,183.41077 161.13667,185.5532 C 163.71385,190.01418 167.5445,200.2895 168.3021,204.77369 L 169.08129,209.38566 L 171.6464,206.97587 C 173.0572,205.65049 174.78803,204.56609 175.49267,204.56609 C 176.85483,204.56609 180.43668,218.52313 180.43668,223.8309 L 180.43668,226.99143 L 183.42762,224.18161 C 186.32254,221.46202 186.46986,221.44194 188.01614,223.55658 C 188.8948,224.7582 189.94216,227.93164 190.3436,230.60866 C 191.43521,237.88798 192.51911,239.14017 195.44022,236.49659 C 196.75796,235.30406 198.07871,234.57094 198.37522,234.86744 C 199.58799,236.08022 204.56129,250.68964 205.32162,255.27298 C 205.77104,257.98218 206.45047,260.19879 206.83145,260.19879 C 207.21241,260.19879 208.72919,259.0667 210.20205,257.68302 C 211.6749,256.29934 213.20567,255.49297 213.60376,255.89107 C 214.81542,257.10273 217.48779,269.77252 217.50705,274.39672 C 217.52628,279.01156 218.64423,279.84568 221.0022,277.0045 C 221.79576,276.04832 222.86229,275.26598 223.37225,275.26598 C 224.62314,275.26598 226.5955,281.49366 228.34255,290.95959 C 229.67872,298.19927 229.92328,298.63173 231.685,296.87002 C 232.73043,295.82458 233.82799,294.96923 234.12403,294.96923 C 235.23898,294.96923 241.06924,314.34621 241.74227,320.2886 L 242.44397,326.48423 L 245.6344,323.96881 C 248.0126,322.09377 248.94834,321.84426 249.30991,322.98875 C 249.57669,323.83319 251.44413,329.61048 253.45978,335.82714 C 255.47541,342.04382 257.47233,349.52444 257.89737,352.45074 L 258.67017,357.77129 L 261.80191,355.30521 L 264.93364,352.83912 L 266.07804,357.22586 C 268.86967,367.92675 270.70079,375.88173 271.42313,380.44656 C 272.19546,385.32728 273.43133,386.58387 274.98568,384.06888 C 276.01906,382.39683 278.07754,388.26368 282.35623,405.07563 C 285.43132,417.15842 291.70902,434.02821 297.6674,446.22065 L 299.93301,450.85671 L 299.39693,441.58459 C 299.09374,436.34079 297.59032,428.28415 295.93642,423.04035 C 294.328,417.94069 292.20883,409.85656 291.22715,405.07563 C 289.67596,397.52105 289.6608,396.21841 291.11137,395.12572 C 292.15588,394.3389 292.37179,393.45977 291.68837,392.77635 C 290.61578,391.70376 282.42997,368.88662 282.42997,366.9695 C 282.42997,366.43109 283.68207,366.22993 285.21241,366.52246 L 287.99484,367.05437 L 283.53339,355.96786 C 281.0796,349.87027 278.72634,343.03915 278.30394,340.78755 C 277.58418,336.95092 277.72606,336.69376 280.56247,336.69376 C 282.22705,336.69376 283.58899,336.53059 283.58899,336.33116 C 283.58899,336.13174 282.31738,333.33265 280.76318,330.11097 C 278.1817,324.75979 274.31687,312.10284 274.31687,308.99987 C 274.31687,308.29505 275.93734,307.71839 277.91792,307.71839 C 280.90005,307.71839 281.37222,307.3698 280.66519,305.69012 C 277.83532,298.96731 273.16232,286.03789 272.54256,283.21615 C 271.84678,280.04826 271.99902,279.90204 275.99306,279.90204 L 280.17147,279.90204 L 278.53184,276.71475 C 276.55938,272.88047 271.99884,258.34222 271.99884,255.88861 C 271.99884,254.60019 272.92609,254.27671 275.52567,254.65825 C 278.41432,255.08222 278.90425,254.84388 278.2333,253.34103 C 276.54981,249.57029 272.19759,236.3006 271.41428,232.55023 L 270.60208,228.66148 L 275.53141,229.49428 C 280.04908,230.25754 280.38295,230.14673 279.52909,228.16747 C 276.60236,221.38324 274.26882,213.25708 273.59084,207.48848 L 272.81889,200.92042 L 276.96162,201.69759 L 281.10434,202.47477 L 278.31762,195.69708 C 276.78492,191.96935 275.51853,187.15913 275.5034,185.00771 C 275.47694,181.24616 275.61402,181.12367 279.0752,181.8159 C 282.12934,182.42672 282.56056,182.23881 281.92219,180.57524 C 276.69476,166.95281 276.72259,163.25169 282.0484,163.78668 L 285.68817,164.15232 L 283.93451,159.15062 C 282.96999,156.3997 282.10652,151.54116 282.01566,148.35387 L 281.85047,142.5588 L 286.31263,142.82732 C 290.1527,143.0584 290.65446,142.81602 289.9117,141.08879 C 289.43701,139.98491 288.79803,134.18706 288.49176,128.20467 L 287.93489,117.32757 L 292.12714,118.11404 C 296.26396,118.89012 296.30418,118.86054 295.16975,115.87676 C 293.75077,112.14457 293.69799,103.71711 295.07991,101.53464 C 295.64328,100.64494 296.93918,100.23741 297.95971,100.62901 C 299.53153,101.23218 299.8152,100.29793 299.8152,94.51812 C 299.8152,86.724435 300.57917,83.948963 302.5189,84.69583 C 303.47897,85.065496 303.75456,83.328574 303.46811,78.713324 C 303.086,72.55713 303.1943,72.251126 305.49638,72.981778 C 307.72909,73.690414 307.9283,73.310627 307.9283,68.345378 C 307.9283,65.370834 308.65674,61.293622 309.54705,59.28491 C 310.43737,57.276197 311.76912,50.15636 312.5065,43.46305 C 314.05717,29.387574 316.92734,8.52739 318.00821,3.477044 L 318.75237,0 L 319.59938,2.897537 C 320.06524,4.491182 320.49839,12.286913 320.56193,20.221383 C 320.7021,37.724035 322.85346,61.159898 324.41066,62.147345 C 325.03478,62.543107 325.36285,65.797404 325.13971,69.379117 C 324.77133,75.292268 324.93238,75.828197 326.8904,75.205119 C 328.89361,74.567664 329.01671,75.181489 328.62324,83.845803 C 328.22536,92.607322 328.34054,93.159001 330.52339,92.946936 C 332.61613,92.743611 332.84687,93.412408 332.84468,99.67526 C 332.84335,103.50001 332.41056,107.82323 331.88294,109.28242 C 330.99851,111.72842 331.17059,111.87352 334.08758,111.14139 L 337.25153,110.34729 L 336.63789,120.18319 C 336.30039,125.59293 335.40533,131.17557 334.64886,132.58903 C 333.3213,135.06959 333.41721,135.132 337.4066,134.38359 L 341.53972,133.60821 L 341.53972,138.12067 C 341.53972,142.38599 339.48765,151.55984 337.47079,156.31097 C 336.53663,158.51158 337.4608,158.48302 343.74199,156.11716 C 345.06634,155.61833 345.24956,156.87311 344.73833,162.94053 C 344.3938,167.02957 343.3121,172.65356 342.33456,175.43829 L 340.55722,180.50143 L 344.58608,179.84764 C 347.35908,179.39764 348.79936,179.67443 349.20657,180.73559 C 349.71573,182.06242 346.2238,193.6469 343.29415,200.35009 C 342.4521,202.27673 342.74304,202.42251 346.00178,201.70676 C 349.54225,200.92914 349.65283,201.02502 349.65283,204.87205 C 349.65283,209.50182 346.01926,220.64027 342.64125,226.36558 C 339.80413,231.17412 340.26579,231.89428 345.10418,230.2076 L 348.78696,228.92379 L 348.23169,234.70265 C 347.92629,237.88102 346.06553,243.73158 344.09667,247.70389 C 342.12781,251.6762 340.67472,255.08407 340.86759,255.27693 C 341.06045,255.46979 342.61308,255.09727 344.31787,254.4491 C 350.92451,251.93728 349.41432,259.93294 339.43262,280.31405 C 339.16554,280.85939 340.57349,280.94833 342.56141,280.51172 C 346.04556,279.74647 346.17508,279.8569 346.15629,283.57674 C 346.14557,285.69914 344.32889,291.86887 342.11923,297.28726 C 339.90957,302.70565 338.0929,307.26927 338.08217,307.42864 C 338.07145,307.588 339.40801,307.71839 341.05231,307.71839 C 343.81307,307.71839 343.98202,308.00674 343.25932,311.48519 C 342.82888,313.55693 340.70121,318.99252 338.53117,323.56429 C 336.36113,328.13606 334.58564,332.12929 334.58564,332.43815 C 334.58564,332.747 335.62875,332.72693 336.90367,332.39353 C 340.55592,331.43844 339.8766,337.13113 335.16514,346.96228 C 332.93404,351.61781 331.10859,355.6551 331.10859,355.93403 C 331.10859,356.21296 332.41248,356.11392 334.00613,355.71393 C 336.4106,355.11046 336.90367,355.40254 336.90367,357.43038 C 336.90367,358.7744 337.42522,359.87405 338.06268,359.87405 C 338.70014,359.87405 339.22169,357.26627 339.22169,354.07898 C 339.22169,349.80597 339.66035,348.28391 340.89181,348.28391 C 341.81038,348.28391 342.88427,348.80546 343.27825,349.44292 C 345.04642,352.30388 347.20838,350.48858 347.07424,346.25563 C 346.91128,341.11399 348.50565,323.73911 349.25331,322.50872 C 349.53953,322.03771 350.97112,322.43692 352.43464,323.39584 L 355.09556,325.13935 L 355.78674,313.79421 C 356.56454,301.02716 357.34807,298.02151 359.65401,298.95917 C 360.52794,299.31454 361.91083,299.87794 362.72709,300.21118 C 363.82949,300.66122 364.59171,297.61351 365.69057,288.36193 C 366.50419,281.51161 367.43469,275.64202 367.75831,275.3184 C 368.08193,274.99478 369.80807,275.5687 371.59419,276.5938 L 374.84168,278.4576 L 375.61852,269.03844 C 376.04578,263.8579 376.92826,257.62482 377.57958,255.18712 L 378.76378,250.75497 L 382.59973,253.68078 L 386.43568,256.60661 L 387.17556,250.31136 C 388.14651,242.0501 390.03756,233.37392 391.31595,231.31507 C 392.18598,229.9139 392.78559,229.96112 395.335,231.63154 L 398.33144,233.59489 L 398.33791,229.22186 C 398.34146,226.8167 398.89146,222.76262 399.56012,220.21278 C 401.70552,212.03154 401.61916,212.14859 403.95219,214.25995 C 407.19079,217.19084 408.76258,216.54813 408.76258,212.29298 C 408.76258,207.28523 411.17192,195.29397 412.1781,195.29397 C 412.60572,195.29397 413.968,196.05972 415.20539,196.99563 C 418.54332,199.5203 418.79983,199.26931 419.01732,193.26569 C 419.24087,187.09461 422.24998,175.59071 423.64063,175.59071 C 424.13844,175.59071 425.55815,176.35646 426.79553,177.29238 C 430.03135,179.73983 430.78303,179.47416 430.79032,175.88047 C 430.79896,171.61951 432.75454,165.09717 434.84548,162.35549 C 436.44573,160.25721 436.66552,160.24262 438.71646,162.09871 C 440.80587,163.98958 440.91787,163.86949 441.5816,159.02715 C 441.96149,156.25551 442.82467,152.53498 443.49978,150.75932 C 444.69143,147.62503 444.81127,147.58589 447.60717,149.41784 C 450.40313,151.24982 450.4871,151.22237 450.4871,148.47668 C 450.4871,146.92119 451.54854,143.17227 452.84585,140.14577 C 454.64091,135.95807 455.52724,134.96567 456.5547,135.99313 C 458.55022,137.98865 459.75922,137.6383 459.75922,135.06453 C 459.75922,133.81124 460.64002,130.93877 461.71654,128.68128 C 463.18372,125.60458 464.19954,124.74359 465.77309,125.24302 C 467.11234,125.66808 467.87233,125.32586 467.87233,124.29777 C 467.87233,123.41142 470.13142,119.07344 472.89253,114.65779 C 480.87343,101.89448 487.57558,90.34226 487.57558,89.349158 C 487.57558,87.561598 496.18744,74.514216 496.58336,75.701948 C 497.06577,77.149213 494.55507,85.73315 491.14847,94.283454 C 487.28547,103.97926 480.48315,130.91765 481.78737,131.35498 C 483.64365,131.97744 483.11848,136.50207 480.62149,141.39978 C 477.84883,146.83819 477.87359,146.61535 480.04198,146.61535 C 483.02586,146.61535 482.15957,149.69468 475.02356,164.45389 C 474.74891,165.02195 475.89609,165.14241 477.57284,164.72157 C 480.34262,164.02639 480.62149,164.26534 480.62149,167.33385 C 480.62149,169.19145 478.62809,174.67772 476.19171,179.52558 L 471.76192,188.33988 L 475.03269,188.33988 C 477.71191,188.33988 478.30346,188.84265 478.30346,191.11972 C 478.30346,194.18572 472.7429,205.40467 468.39202,211.11699 C 465.43493,214.99937 466.1356,216.15623 471.44417,216.15623 C 476.26882,216.15623 473.65318,222.09852 464.81197,231.22342 L 458.63559,237.598 L 462.65357,238.77446 L 466.67156,239.95092 L 464.26567,243.99003 C 462.94243,246.21153 459.21859,250.7367 455.99045,254.04595 L 450.12111,260.06277 L 453.23705,260.84483 C 457.64008,261.94991 456.42294,265.11589 448.65782,272.75615 C 445.20172,276.15667 442.374,279.15562 442.374,279.42048 C 442.374,279.68534 443.45226,279.90204 444.77014,279.90204 C 449.31679,279.90204 445.43316,287.27102 437.63381,293.44288 L 432.89659,297.19157 L 435.89678,297.94457 C 437.54688,298.35872 438.89696,299.19688 438.89696,299.80713 C 438.89696,301.20424 436.51225,305.78822 435.38426,306.55938 C 434.91805,306.87811 432.0608,309.42779 429.03481,312.22534 C 424.37944,316.52926 423.82448,317.47491 425.42757,318.37204 C 428.24013,319.94603 426.17346,323.09335 415.95833,332.79275 C 408.09647,340.2577 407.49162,341.13808 409.7357,341.85032 C 412.06478,342.58955 412.11484,342.84524 410.53028,345.90943 C 409.60018,347.70804 405.43185,352.17113 401.2673,355.8274 C 393.54644,362.60593 392.28426,364.51011 395.51201,364.51011 C 399.07599,364.51011 395.89934,369.65202 386.64725,378.8591 C 381.59932,383.88249 377.46918,388.18533 377.46918,388.42097 C 377.46918,388.65662 378.25151,388.84942 379.2077,388.84942 C 381.18565,388.84942 381.53576,390.66629 379.76831,391.75864 C 379.12045,392.15903 378.85981,392.92258 379.18912,393.45542 C 379.51842,393.98824 375.64729,397.91835 370.5866,402.18898 C 365.5259,406.45962 360.88261,411.33359 360.26817,413.02002 C 359.65372,414.70646 355.21031,420.78028 350.39391,426.5174 C 338.8582,440.25832 318.66754,469.93322 324.76479,464.18538 C 336.70391,452.93045 347.90568,440.5832 353.2094,432.83207 C 361.17914,421.18469 362.14428,420.22972 363.69115,422.46085 C 364.57108,423.73001 365.05176,423.81853 365.47164,422.78871 C 367.48293,417.85566 373.07596,408.69936 378.04869,402.19891 C 382.86858,395.89824 384.0603,394.91779 385.13054,396.3725 C 386.8814,398.75231 387.53288,398.5766 388.31453,395.51376 C 388.68057,394.07948 391.09741,390.09775 393.68528,386.66547 C 396.27315,383.23318 398.89839,379.58229 399.51913,378.55236 C 400.54131,376.85639 400.80448,376.88192 402.30931,378.82312 C 403.86107,380.82487 404.16155,380.59515 406.85753,375.34608 C 408.4452,372.25486 411.33362,367.90023 413.27623,365.66913 C 416.86983,361.54184 417.34648,361.58448 419.75437,366.24863 C 420.11137,366.94014 420.62866,366.8136 421.0368,365.93495 C 421.63989,364.63656 433.76099,347.36249 435.00377,346.03027 C 435.26806,345.74695 436.59594,346.62679 437.95462,347.98546 L 440.42493,350.45577 L 442.84824,345.97762 C 445.51789,341.04421 453.22362,332.0577 454.78426,332.0577 C 455.32861,332.0577 456.39984,333.7158 457.16479,335.74237 L 458.5556,339.42704 L 461.76519,334.67629 C 465.68593,328.87293 473.38694,320.46755 474.78324,320.46755 C 475.34557,320.46755 476.40811,322.293 477.14444,324.52411 C 478.62359,329.00595 480.10534,329.71473 481.14536,326.43791 C 481.87932,324.12543 498.29258,308.87741 500.04782,308.87741 C 500.63294,308.87741 501.76441,310.31 502.56218,312.06093 C 504.00911,315.23659 504.01746,315.23856 505.94596,312.85697 C 508.57368,309.61188 522.44556,299.60529 524.31643,299.60529 C 525.14508,299.60529 525.82306,300.56148 525.82306,301.73015 C 525.82306,305.22175 527.0649,305.42291 530.06976,302.41804 C 532.9158,299.572 543.2361,293.81022 545.48778,293.81022 C 546.14643,293.81022 546.68532,294.67338 546.68532,295.72837 C 546.68532,297.4565 546.88626,297.47125 548.7136,295.87731 C 551.78184,293.20095 556.20153,291.1217 559.43449,290.83367 C 561.02813,290.69168 569.63382,287.34543 578.55823,283.39756 C 599.3021,274.22114 600,273.95397 600,275.18887 C 600,275.75236 596.47949,278.97628 592.17665,282.35311 C 580.94372,291.16864 568.09956,303.41552 568.29098,305.12804 C 568.4904,306.91222 560.32615,314.10808 554.9243,316.90924 C 551.01757,318.93511 551.00875,318.95812 553.47615,320.68635 C 555.84582,322.34613 555.86501,322.50997 553.89835,324.28976 C 552.76517,325.31528 548.82407,327.53418 545.14035,329.22064 C 539.04573,332.01085 538.63113,332.42704 540.53572,333.84295 C 543.63162,336.14453 541.45234,338.81233 532.91353,343.17379 C 524.09009,347.68062 523.57908,348.16409 526.13013,349.59173 C 530.38761,351.97434 523.89781,357.2418 511.46736,361.49282 C 509.4389,362.18652 509.41735,362.3907 511.16829,364.32549 C 512.70292,366.02124 512.78649,366.76492 511.61581,368.30825 C 509.88179,370.59427 494.27821,378.40774 491.37451,378.44407 C 489.64311,378.46572 489.75222,378.80677 492.05782,380.57986 C 497.62407,384.86052 491.38684,390.43196 477.4342,393.64248 C 471.08908,395.1025 470.06946,396.13106 473.21962,397.89399 C 477.08308,400.05609 473.02949,403.44696 461.83122,407.4205 C 446.23564,412.95437 446.36466,412.87255 448.86907,415.63991 C 450.8371,417.81454 450.82296,418.00404 448.52107,420.30595 C 446.92799,421.89901 442.51519,423.44502 435.38922,424.90662 C 425.74181,426.88541 421.70282,428.91363 421.54859,431.85689 C 421.52832,432.24378 416.94812,434.27332 411.37036,436.36698 C 405.7926,438.46065 400.1163,441.3622 398.75637,442.81488 C 395.34056,446.46364 390.70261,448.66734 364.72002,458.98716 C 352.28959,463.92431 339.25067,469.4731 335.74465,471.31781 C 329.92104,474.38194 329.72069,474.61149 333.42662,473.97374 C 335.65772,473.5898 342.8062,471.77983 349.31213,469.9516 C 366.62866,465.0855 369.35608,464.68124 369.35608,466.98064 C 369.35608,468.67383 369.63284,468.69524 371.96386,467.18236 C 374.04639,465.83075 382.7546,463.83581 391.95686,462.60222 C 392.59432,462.51677 392.94601,463.65983 392.73841,465.14236 C 392.39086,467.62425 392.57291,467.72442 395.03576,466.40634 C 397.41137,465.13496 412.60851,460.77936 414.8474,460.7282 C 415.3255,460.71727 415.71666,461.80724 415.71666,463.15036 C 415.71666,464.99875 416.20911,465.40343 417.74236,464.81507 C 421.91912,463.21229 430.93804,461.67851 432.54958,462.29691 C 433.50031,462.66175 433.92313,463.71698 433.52956,464.74262 C 432.96291,466.21928 433.3345,466.35853 435.57738,465.51001 C 437.08442,464.93988 441.12768,464.08897 444.5624,463.6191 L 450.80734,462.7648 L 450.22977,465.78615 L 449.6522,468.80749 L 457.60325,468.06853 C 465.18899,467.3635 465.5543,467.4437 465.5543,469.81402 C 465.5543,472.09471 466.16162,472.29848 472.95911,472.29848 C 479.29997,472.29848 480.3408,472.58991 480.20296,474.32675 C 480.11442,475.44231 480.69789,476.22332 481.49956,476.06234 C 482.30122,475.90136 485.16979,476.2638 487.87414,476.86777 C 490.57849,477.47173 494.61246,478.28507 496.83854,478.67519 C 499.0646,479.06531 501.30713,480.13715 501.82194,481.05705 C 502.33674,481.97696 503.68379,482.72961 504.81539,482.72961 C 510.31472,482.72961 534.78886,493.32917 536.79886,496.58141 C 537.09846,497.06618 526.98736,497.40757 514.32975,497.34006 C 493.93438,497.23126 491.05977,497.44807 489.06472,499.24557 C 487.57271,500.58984 484.91522,501.27385 481.18443,501.27385 C 477.03057,501.27385 474.86452,501.92281 472.91945,503.75012 C 470.61633,505.91379 468.88308,506.23295 459.1891,506.27839 C 449.77567,506.32253 448.13976,506.60587 448.39267,508.14843 C 449.22051,513.19784 445.39102,513.93889 433.67628,510.99623 C 426.78036,509.26404 426.10074,509.26843 424.31235,511.05683 C 422.138,513.23117 417.87568,512.74721 411.08061,509.55445 C 408.55298,508.36681 403.9662,507.63739 398.91095,507.61915 C 390.09005,507.58731 369.0738,501.82128 339.8012,491.40176 C 328.46803,487.36776 323.63459,486.17873 320.29774,486.60393 C 312.13326,487.6443 311.11781,484.04734 310.27725,507.25312 C 309.46784,529.59887 306.64497,554.36564 302.07323,579.2322 C 296.39898,584.07495 298.08721,573.37204 298.91414,568.28848 z M 312.32946,479.06063 C 310.20049,477.67866 300.64245,478.2254 302.06485,479.6478 C 302.68064,480.26359 304.77338,480.72223 306.71539,480.66702 C 308.65741,480.61179 310.24633,481.11716 310.24633,481.79003 C 310.24633,482.53441 310.94854,482.43067 312.03971,481.52507 C 313.474,480.33472 313.53201,479.84125 312.32946,479.06063 z M 326.90379,410.81963 C 327.87182,408.87918 328.98762,404.83711 329.38333,401.83727 L 330.10281,396.38302 L 326.7798,402.7576 C 324.93214,406.30197 323.67166,410.28999 323.94076,411.73996 C 324.56659,415.1121 324.79834,415.04012 326.90379,410.81963 z M 335.72691,377.24978 C 337.72216,378.31761 337.90807,377.76893 338.26115,369.77002 C 338.47072,365.02236 338.20631,361.57628 337.67356,362.11207 C 335.52753,364.27035 329.1623,380.52092 330.69304,379.93352 C 331.64285,379.56904 332.3412,380.18327 332.4531,381.48158 C 332.55511,382.66534 332.84898,381.93816 333.10614,379.86563 C 333.5109,376.60349 333.86287,376.25218 335.72691,377.24978 z"
       id="path2390"
       sodipodi:nodetypes="cssssssssssssssssssssssssssssscccssssssssssssssssssssssscccsssssssssssssssssccccccscccssssssscccsssssssscccssssssssssssssssssssssscccscccscccssssssscccssssssssssssscccccssscccscccscccsssssssssssssscccsscccccssscccssssscccsssssssscccssscccscccccsssccccccscccsssssssssscccsssssssscccscccssscccssssscccssssssssssssssssssssssscccssssccccccccscccssssssssssssssssssssssssssssssscccsssccccccccssscccsssssssssssssssssssssssssssssssscccscccssssssssssssssssssssssssssssssssssssssssssssssssssssscccccsssssssssssssssssssssscccsssscccccsccsssssc" />
    <path
       id="rect5798"
       d="M 298.58893,474.71771 L 316.33822,474.71771 L 316.33822,484.73748 L 298.58893,484.73748 L 298.58893,474.71771 z"
       style="fill:#008000;fill-opacity:1;fill-rule:nonzero;stroke:none" />
  </g>
</svg>
